PathFileType	4	(X/Y/Z)	C:/Users/opensim2020/Desktop/walking_exp_matlab/subject03_walking16_run.trc	
DataRate	CameraRate	NumFrames	NumMarkers	Units	OrigDataRate	OrigDataStartFrame	OrigNumFrames	
100.00	100.00	6	49	mm	100.00	191	131	
Frame#	Time	RKNE			RTOE			RWRB			LTHI			RELB			RFRM			RUPA			RASI			LTIB			RWRA			RTHI			LSHO			LTOE			RTIB			LWRA			CLAV			LASI			RSHO			RFHD			STRN			LHEE			RFIN			RBHD			LFRM			C7			LWRB			LFIN			LUPA			LBHD			LELB			RANK			RHEE			RBAK			LPSI			T10			LFHD			RPSI			LKNE			LANK			*39			*40			*41			*42			*43			*44			*45			*46			*47			*48			
		X1	Y1	Z1	X2	Y2	Z2	X3	Y3	Z3	X4	Y4	Z4	X5	Y5	Z5	X6	Y6	Z6	X7	Y7	Z7	X8	Y8	Z8	X9	Y9	Z9	X10	Y10	Z10	X11	Y11	Z11	X12	Y12	Z12	X13	Y13	Z13	X14	Y14	Z14	X15	Y15	Z15	X16	Y16	Z16	X17	Y17	Z17	X18	Y18	Z18	X19	Y19	Z19	X20	Y20	Z20	X21	Y21	Z21	X22	Y22	Z22	X23	Y23	Z23	X24	Y24	Z24	X25	Y25	Z25	X26	Y26	Z26	X27	Y27	Z27	X28	Y28	Z28	X29	Y29	Z29	X30	Y30	Z30	X31	Y31	Z31	X32	Y32	Z32	X33	Y33	Z33	X34	Y34	Z34	X35	Y35	Z35	X36	Y36	Z36	X37	Y37	Z37	X38	Y38	Z38	X39	Y39	Z39	X40	Y40	Z40	X41	Y41	Z41	X42	Y42	Z42	X43	Y43	Z43	X44	Y44	Z44	X45	Y45	Z45	X46	Y46	Z46	X47	Y47	Z47	X48	Y48	Z48	X49	Y49	Z49	

1	0.000	327.64511	-1661.93604	409.43604	231.37209	-1799.85071	30.02068	430.90088	-1520.12610	880.99011	49.90657	-1626.46570	575.24677	492.56577	-1689.04114	1016.37366	460.25104	-1592.45374	940.52106	471.10526	-1698.55176	1109.89917	329.93625	-1652.21802	875.19055	72.28988	-1738.83472	321.36771	399.87683	-1513.20239	924.63483	368.32596	-1702.84570	586.29755	61.80981	-1628.76306	1327.10571	109.59414	-1878.45520	97.41682	313.35107	-1776.87964	254.05753	31.69173	-1636.06689	849.41901	214.18312	-1577.16138	1272.77722	94.91457	-1635.64063	860.70294	369.73288	-1638.89868	1306.21655	285.69125	-1599.36084	1569.68652	206.58508	-1556.27771	1100.85071	117.29613	-1984.15442	249.41527	408.76227	-1452.17053	876.28033	275.53317	-1704.27051	1491.80823	-31.54281	-1670.76758	953.22955	206.11581	-1701.89685	1355.83948	-23.16579	-1615.69983	857.41101	-12.01214	-1615.76697	766.80078	-38.94983	-1707.12476	1164.30005	145.33791	-1693.61340	1489.08447	-63.10279	-1733.72595	1054.77673	254.50922	-1920.01563	97.12204	204.77275	-1975.94092	91.95194	294.19742	-1772.52039	1190.93103	125.49344	-1795.22241	909.64441	197.18777	-1773.49988	1056.38196	153.24724	-1583.70544	1567.24731	274.25113	-1803.05603	929.69489	88.06161	-1568.52673	405.86624	86.57961	-1928.02661	233.71886																						195.21626	-1686.54492	1599.88806						 
2	0.010	328.69321	-1650.94092	407.03381	231.54759	-1799.45923	29.83451	422.40100	-1471.27234	901.40594	50.85884	-1589.09790	581.48895	491.34479	-1649.87488	1019.30798	454.98032	-1547.92798	953.61542	471.66864	-1663.36963	1111.69763	331.71622	-1622.82874	874.51813	73.42099	-1683.03210	320.31290	392.77448	-1468.78918	946.42328	368.88068	-1683.45703	585.67615	63.01378	-1601.30981	1329.37634	112.80480	-1806.25525	88.67850	314.48080	-1770.45679	255.20459	20.04591	-1624.50916	856.61542	214.39894	-1547.39929	1274.00549	95.69305	-1606.52161	863.36945	370.10553	-1608.45471	1310.04065	285.89990	-1569.51782	1571.28772	207.45793	-1527.20093	1102.14014	117.02878	-1924.21313	231.22173	398.19037	-1403.79529	902.44049	275.97253	-1674.61328	1493.71313	-40.81440	-1657.31763	961.61798	206.65483	-1672.88269	1357.23022	-34.54990	-1605.19519	863.58563	-22.95822	-1610.00171	772.59497	-42.20972	-1687.41663	1173.91321	145.77469	-1664.14783	1490.68433	-69.97348	-1718.21741	1065.73657	255.87405	-1917.09766	101.85686	206.23035	-1972.89490	98.55238	296.96246	-1741.19177	1192.46887	126.62720	-1765.75208	911.32117	199.17857	-1743.62830	1057.55054	153.36105	-1554.06091	1568.52356	275.62192	-1773.48450	930.38074	90.14473	-1519.22559	417.08002	86.99662	-1866.19775	219.95303																						195.39120	-1656.53772	1601.64575						 
3	0.020	329.49200	-1640.04004	406.41263	231.67142	-1798.84888	29.69368	413.71405	-1425.17151	923.98401	53.03068	-1552.97266	588.44269	489.57562	-1611.21326	1023.45984	449.41476	-1505.59656	968.38861	470.50848	-1626.96130	1114.66150	333.62817	-1593.63831	874.96442	75.11299	-1627.83179	319.42703	385.89050	-1426.86511	970.04028	369.37460	-1663.70422	586.38843	64.21394	-1574.20081	1333.22620	117.06065	-1731.92603	80.49263	315.50781	-1763.79761	257.90082	11.40537	-1610.94653	867.12732	214.12080	-1517.44946	1276.54285	96.61414	-1576.70642	866.99097	370.13556	-1577.15356	1314.75134	286.03656	-1539.53381	1573.97375	207.86371	-1497.37366	1104.77136	117.61408	-1862.68701	211.52866	387.98798	-1358.05872	931.01764	276.24686	-1644.92200	1496.79712	-49.30054	-1643.00232	972.49976	207.70569	-1643.14795	1359.81812	-44.59616	-1594.07080	872.33527	-31.62184	-1601.43359	781.82251	-44.76294	-1666.09265	1184.76636	146.01602	-1634.46228	1493.56848	-76.27837	-1701.17932	1078.31909	256.68048	-1913.36865	107.19259	207.32880	-1968.94983	106.36386	300.09097	-1709.54468	1195.23389	128.29097	-1735.58032	914.44806	201.44479	-1713.17957	1059.67993	153.43239	-1524.28699	1571.12451	277.55838	-1742.91309	932.27631	92.59563	-1471.89587	429.66998	88.29016	-1801.99402	205.05984																						195.55270	-1626.30969	1604.61304						 
4	0.030	330.30115	-1628.94568	407.88885	232.09525	-1797.85449	29.82998	405.56601	-1381.50989	947.78632	54.88459	-1516.48608	596.12415	487.43228	-1572.90698	1028.88757	443.99329	-1464.39514	984.25549	469.58981	-1589.98816	1118.70850	334.89453	-1562.62415	876.67505	76.79016	-1571.83826	319.57361	379.27673	-1387.24292	994.31152	369.84613	-1643.12964	588.54022	65.51273	-1547.25098	1338.43872	122.32175	-1656.56128	72.87573	316.55411	-1756.44043	262.22870	3.60365	-1596.80115	879.68695	213.49841	-1487.38452	1280.39453	97.42430	-1545.71240	871.72150	369.84799	-1545.28796	1320.43652	286.09369	-1509.49658	1577.70801	207.51398	-1466.87488	1108.81555	119.38876	-1799.23950	190.72447	378.63376	-1315.54443	960.81329	276.29401	-1615.06714	1500.86755	-56.83026	-1627.57983	985.07465	209.16335	-1613.36316	1363.47388	-52.94564	-1582.08386	883.20007	-38.12704	-1590.67432	792.76135	-46.99397	-1643.29932	1196.58936	146.11246	-1604.70386	1497.62732	-81.42474	-1682.56274	1092.40479	258.42532	-1908.24780	114.48140	208.41774	-1963.27405	115.27779	303.23346	-1677.58582	1199.02234	130.40691	-1704.75830	918.71021	204.09915	-1682.21802	1062.67700	153.47021	-1494.29260	1574.83643	280.02029	-1711.28894	935.12933	95.20003	-1426.90869	442.75446	90.70815	-1736.58533	189.09520																						195.70508	-1596.10388	1608.71753						 
5	0.040	330.96756	-1617.27185	411.28555	232.19835	-1796.80872	29.82690	397.71667	-1340.57617	972.09406	56.52571	-1479.78210	604.47241	485.12119	-1535.02087	1035.57629	438.36902	-1425.24988	1000.82642	468.06317	-1552.45325	1123.75574	335.94827	-1530.29761	879.49628	79.31197	-1517.84900	318.52863	372.93759	-1350.13269	1018.63330	370.36807	-1621.23096	592.13696	66.90475	-1520.39417	1344.88635	128.38734	-1580.15613	66.16659	317.79337	-1748.17810	268.23413	-2.34137	-1581.62830	893.51819	212.60777	-1457.31848	1285.45325	98.92121	-1514.25549	877.41248	369.30310	-1513.18335	1326.98242	286.02322	-1479.37268	1582.33362	206.73480	-1435.90833	1113.97583	121.68259	-1733.49487	169.15192	370.14911	-1275.97900	990.80182	276.21133	-1585.10632	1505.78357	-62.87273	-1611.05237	998.88879	210.63350	-1583.52979	1367.88293	-59.41977	-1568.57056	895.70337	-42.88204	-1577.75439	805.84265	-48.73485	-1619.20129	1209.01746	146.03738	-1574.85950	1502.62585	-85.58257	-1662.67029	1107.48889	259.98325	-1901.81567	122.68013	210.02446	-1955.90955	125.73898	306.27151	-1645.13684	1203.52502	132.80151	-1673.32019	923.81641	207.21597	-1650.82996	1066.45508	153.45343	-1464.15967	1579.50647	282.77869	-1678.68530	938.63330	97.76558	-1384.33215	455.57809	93.47018	-1671.67773	173.93356																						195.76103	-1565.90125	1613.70349						 
6	0.050	331.97748	-1604.47900	416.38586	231.93440	-1795.64624	29.52054	390.23044	-1302.12451	995.87366	57.91081	-1442.87988	613.49506	482.82498	-1497.61072	1043.25964	432.96262	-1387.83948	1017.78711	466.25031	-1515.13599	1129.99695	336.68054	-1496.75891	882.79120	81.95528	-1464.30371	317.21933	367.11487	-1315.05334	1042.35242	371.07193	-1597.96655	596.85583	68.26311	-1493.04590	1352.03162	134.97963	-1503.31262	60.17753	319.39749	-1738.91577	275.78946	-7.02881	-1565.05615	908.00153	211.50763	-1427.33704	1291.43164	100.55285	-1481.90198	884.18860	368.41965	-1480.79016	1334.11414	285.91754	-1449.21912	1587.68396	205.45074	-1404.68091	1119.96094	125.64098	-1665.33679	148.30946	362.53464	-1239.40576	1019.77563	276.01553	-1555.10925	1511.40674	-67.22203	-1592.56641	1013.83118	211.98076	-1553.66736	1372.90466	-63.83189	-1553.34241	909.30188	-45.91275	-1563.03015	819.75629	-50.03492	-1593.95813	1221.70398	145.84808	-1544.77881	1508.30542	-88.88113	-1641.69775	1123.06689	261.93304	-1893.76123	131.74898	211.89430	-1946.46667	136.99715	309.12476	-1612.34229	1208.59277	135.26697	-1641.19849	929.55481	210.77382	-1618.99695	1070.77258	153.36879	-1433.97034	1584.93237	285.59061	-1645.21741	942.64349	100.16475	-1344.02405	467.88074	97.78634	-1604.50671	158.75026																						195.70403	-1535.52820	1619.25989						 
